<?xml version="1.0" encoding="UTF-8"?>
<svg id="Layer_1" data-name="Layer 1" xmlns="http://www.w3.org/2000/svg" viewBox="0 0 450 108">
  <defs>
    <style>
      .cls-1 {
        fill: #f4ce7d;
      }

      .cls-2 {
        fill: #f4cf81;
      }

      .cls-3 {
        fill: #676151;
      }

      .cls-4 {
        fill: #efcd00;
      }

      .cls-5 {
        fill: #f0ede1;
      }

      .cls-6 {
        fill: #f78e00;
      }

      .cls-7 {
        fill: #ffe2a9;
      }

      .cls-8 {
        fill: #ffdc90;
      }

      .cls-9 {
        fill: #f36a02;
      }

      .cls-10 {
        fill: #6c6450;
      }

      .cls-11 {
        fill: #554a37;
      }

      .cls-12 {
        fill: #645945;
      }

      .cls-13 {
        fill: #776f5a;
      }

      .cls-14 {
        fill: #7a725b;
      }

      .cls-15 {
        fill: #615944;
      }

      .cls-16 {
        fill: #78715d;
      }

      .cls-17 {
        fill: none;
        stroke: #c5b4a3;
        stroke-miterlimit: 10;
      }
    </style>
  </defs>
  <rect class="cls-5" width="450" height="108"/>
  <g>
    <path class="cls-14" d="M215.75,84.02s-1.01,.75,0,1.26h12.65s1.01-.76,0-1.26h-12.43"/>
    <path class="cls-15" d="M216.51,85.29s1.77,1.52,1.77,4.55-.25,2.28,1.01,4.05c0,0,1.26,1.26,5.31,.25,0,0,1.59-.62,1.43-4.23s1.53-4.62,1.53-4.62h-11.05Z"/>
    <path class="cls-10" d="M218.8,88.58s.22-1.27,1.74-1.27h2.41s1.57,.13,1.61,1.27,0,3.97,0,3.97c0,0-.47,1.73-1.99,1.25l-1.66,.08s-2.33,.14-2.11-1.18,0-4.13,0-4.13Z"/>
    <path class="cls-15" d="M218.35,92.45s.19,1.18,.95,1.44-.95-1.44-.95-1.44Z"/>
    <path class="cls-11" d="M219.55,94.14s.76,.25-1.77,2.02c0,0-2.53,.76-2.78,1.52h14.24s-1.08-1.01-2.35-1.26-2.53-2.02-2.28-2.53l-5.06,.25Z"/>
    <path class="cls-15" d="M219.29,95.15s4.3-.51,4.81,.25-.51,1.01-.51,1.01h-3.79l.5,.25s6.83,0,7.08,1.01h-12.21s3.36-1.26,4.11-2.53Z"/>
    <path class="cls-12" d="M209.43,98.44h26.69s-.64,2.53-6.71,3.04-13.15,.25-13.15,.25c0,0-5.57-.51-6.83-3.29Z"/>
    <path class="cls-10" d="M210.69,99.45s-.76-.76,1.26-.51l18.41-.05s.81,.81-1.21,1.32c0,0-2.28,1.01-2.78,1.01h-10.92l-4.76-1.77Z"/>
    <circle class="cls-10" cx="227.26" cy="90.73" r="1.39"/>
    <circle class="cls-16" cx="227.14" cy="90.85" r=".76"/>
    <path class="cls-3" d="M232.07,97.68h3.22s3.61-5.06,1.84-8.35-4.3-4.3-8.6-2.28c0,0-1.26,.76-1.26,2.53h.76s1.77-5.06,6.83-1.52c0,0,2.54,3.12,.38,6.37-2.15,3.24-3.17,3.24-3.17,3.24Z"/>
    <path class="cls-13" d="M208.92,97.43h27.57s1.52,.25,0,1.01h-27.57s-1.01-.76,0-1.01Z"/>
    <path class="cls-8" d="M219.43,84.02h5.18l.31-27.54s0,1.01-4.3,.25c0,0-2.78-1.01-1.77,2.78l.58,24.51Z"/>
    <polygon class="cls-1" points="219.52 83.26 221.95 83.26 221.95 59.04 224.76 59.04 224.76 83.99 219.52 83.99 219.52 83.26"/>
    <path class="cls-7" d="M219.71,56.62c-.34,.23-.69,.48-.89,.84-.23,.43-.19,.95-.15,1.44,.09,1.03,.19,2.07,.28,3.1,.02,.25,.05,.52,.19,.73s.43,.35,.65,.24c.24-.12,.29-.44,.3-.72,.05-.85,.09-1.7,.14-2.55,.01-.23,.03-.47,.15-.67s.38-.33,.59-.23c.15,.07,.23,.24,.33,.37,.33,.42,1.02,.49,1.43,.15,.11-.09,.2-.21,.33-.26,.34-.12,.63,.28,.72,.63s.2,.77,.54,.87c.32-.2,.36-.64,.35-1.02,0-.82,0-1.63-.01-2.45,0-.06,0-.12-.04-.16-.05-.05-.13-.05-.2-.04-1.59,.14-3.24,.37-4.76-.14"/>
    <path class="cls-2" d="M218.94,64.19c1.31,.45,2.59-.63,2.86-1.87,.18-.83,.09-1.68,.2-2.52l-.05,.4c.02-.13,.04-.26,.08-.38,.01-.06,.04-.11,.05-.16,.04-.17-.16,.35-.03,.08l-2.36,.3c.38,.3,.69,.49,1.14,.67,.33,.13,.7,.18,1.05,.19s.7-.03,1.02-.13c.21-.06,.42-.15,.62-.25,.04-.02,.09-.04,.13-.06-.28,.18-.28,.1-.11,.07l-.4,.05s.08,0,.12,0l-.4-.05-.26-.1-.54-.54-.09-.25-.05-.4c.06,.43,.09,.79,.29,1.18,.13,.26,.32,.5,.55,.68,.66,.54,1.43,.76,2.27,.56,.76-.18,1.29-1.09,1.05-1.85-.26-.8-1.03-1.24-1.85-1.05-.04,.01-.09,.02-.13,.03l.4-.05c-.07,0-.13,0-.2,0l.4,.05s-.09-.01-.13-.02c-.14-.05-.09-.02,.17,.08-.27-.21,.15,.15,.06,.07-.23-.22,.17,.3,.04,.07-.07-.13-.05-.07,.07,.18-.01-.04-.02-.09-.03-.13l.05,.4c-.04-.39-.07-.73-.28-1.07-.32-.51-.88-.8-1.48-.79-.4,0-.72,.14-1.07,.31-.31,.15,.31-.08,.04-.02-.1,.02-.2,.05-.31,.07l.4-.05c-.19,.02-.36,.02-.55,0l.4,.05c-.08-.01-.15-.03-.23-.05-.06-.02-.28-.11-.04,0s0,0-.03-.03c-.1-.05-.31-.22,.04,.06-.39-.31-.75-.48-1.26-.41-.44,.06-.89,.3-1.1,.72-.31,.64-.45,1.27-.49,1.98-.03,.49,0,.98-.07,1.47l.05-.4c-.02,.11-.03,.23-.06,.34-.03,.13-.16,.32,.04-.05-.14,.25,.24-.22,.04-.04,.21-.15,.25-.18,.12-.1,.25-.09,.29-.12,.15-.08l.4-.05s-.1,0-.15,0l.4,.05s-.1-.02-.14-.04c-.74-.26-1.67,.29-1.85,1.05-.19,.83,.25,1.57,1.05,1.85h0Z"/>
    <line class="cls-17" x1="222.14" y1="56.95" x2="222.14" y2="55.59"/>
    <path class="cls-4" d="M222.37,55.68c-.73-.08-1.37-.62-1.65-1.31s-.21-1.48,.1-2.15c.2-.43,.49-.82,.72-1.23,.29-.52,.5-1.08,.61-1.66,.08,.53-.35,1.05-.24,1.58,.05,.24,.2,.43,.34,.63,.45,.66,.76,1.42,.9,2.2,.06,.34,.09,.7,.01,1.03s-.28,.66-.59,.82"/>
    <path class="cls-6" d="M221.84,55.49c-.19-.14-.4-.31-.44-.55-.01-.08,0-.17,0-.25,.09-.76,.24-1.52,.45-2.26,.22,.31,.41,.63,.59,.96,.11,.21,.21,.42,.24,.65,.07,.41-.07,.83-.21,1.22-.02,.07-.05,.15-.11,.2-.11,.1-.28,.08-.42,.05"/>
    <path class="cls-9" d="M221.94,55.29c-.09-.07-.11-.19-.1-.3s.07-.21,.11-.32c.09-.23,.14-.48,.14-.72-.03,.32,.22,.61,.19,.92-.01,.14-.07,.28,0,.4-.03,.02-.07,0-.07-.04"/>
  </g>
</svg>