<?xml version="1.0" encoding="UTF-8"?>
<svg id="Layer_1" data-name="Layer 1" xmlns="http://www.w3.org/2000/svg" viewBox="0 0 640 247.42">
  <defs>
    <style>
      .cls-1, .cls-2, .cls-3, .cls-4 {
        font-family: BroadwayCopyistTextExt, 'Broadway Copyist Text Ext';
      }

      .cls-1, .cls-2, .cls-5 {
        font-size: 5.24px;
      }

      .cls-1, .cls-3 {
        fill: #f3b785;
      }

      .cls-2, .cls-6, .cls-4 {
        fill: #ff6d80;
      }

      .cls-7 {
        letter-spacing: .44em;
      }

      .cls-8 {
        letter-spacing: .43em;
      }

      .cls-9 {
        letter-spacing: .43em;
      }

      .cls-10 {
        letter-spacing: .45em;
      }

      .cls-11 {
        letter-spacing: .45em;
      }

      .cls-12 {
        letter-spacing: .44em;
      }

      .cls-13 {
        fill: #f4ce7d;
      }

      .cls-14 {
        fill: #f4cf81;
      }

      .cls-15 {
        fill: #006837;
      }

      .cls-16 {
        fill: #676151;
      }

      .cls-17 {
        fill: #efcd00;
      }

      .cls-18 {
        fill: #f0ede1;
      }

      .cls-19 {
        fill: #f78e00;
      }

      .cls-20 {
        fill: #e3dd00;
      }

      .cls-21 {
        fill: #ffe2a9;
      }

      .cls-22, .cls-23, .cls-24 {
        fill: #fff;
      }

      .cls-25 {
        fill: #ffdc90;
      }

      .cls-26 {
        fill: #f36a02;
      }

      .cls-27 {
        fill: #6c6450;
      }

      .cls-28 {
        fill: #978475;
      }

      .cls-29 {
        fill: #d8b071;
      }

      .cls-30 {
        fill: #a47c52;
      }

      .cls-31 {
        fill: #22b373;
      }

      .cls-32 {
        fill: #17aab8;
      }

      .cls-33 {
        fill: #730643;
      }

      .cls-34 {
        fill: #554a37;
      }

      .cls-35 {
        fill: #645945;
      }

      .cls-36 {
        fill: #776f5a;
      }

      .cls-37 {
        fill: #7a725b;
      }

      .cls-38 {
        fill: #615944;
      }

      .cls-39 {
        fill: #78715d;
      }

      .cls-40 {
        letter-spacing: .34em;
      }

      .cls-41 {
        letter-spacing: .18em;
      }

      .cls-42 {
        letter-spacing: .69em;
      }

      .cls-43 {
        letter-spacing: .46em;
      }

      .cls-44 {
        letter-spacing: .5em;
      }

      .cls-45 {
        letter-spacing: .5em;
      }

      .cls-46 {
        letter-spacing: .5em;
      }

      .cls-47 {
        letter-spacing: .5em;
      }

      .cls-48 {
        letter-spacing: .49em;
      }

      .cls-49 {
        letter-spacing: .49em;
      }

      .cls-50 {
        letter-spacing: .53em;
      }

      .cls-51 {
        letter-spacing: .11em;
      }

      .cls-52 {
        fill: #1b1464;
      }

      .cls-52, .cls-53, .cls-54 {
        stroke: #000;
      }

      .cls-52, .cls-53, .cls-54, .cls-55, .cls-23, .cls-56, .cls-57, .cls-24, .cls-58, .cls-59 {
        stroke-miterlimit: 10;
      }

      .cls-52, .cls-53, .cls-54, .cls-23, .cls-24 {
        stroke-width: .25px;
      }

      .cls-53, .cls-58 {
        fill: #c2adc9;
      }

      .cls-54 {
        fill: #638ed3;
      }

      .cls-60 {
        letter-spacing: .4em;
      }

      .cls-61 {
        letter-spacing: .11em;
      }

      .cls-62 {
        letter-spacing: .42em;
      }

      .cls-3, .cls-4, .cls-63 {
        font-size: 4.94px;
      }

      .cls-64 {
        letter-spacing: .59em;
      }

      .cls-65 {
        letter-spacing: .59em;
      }

      .cls-66 {
        letter-spacing: .55em;
      }

      .cls-55 {
        fill: #754c24;
        stroke: #603813;
      }

      .cls-67 {
        letter-spacing: .63em;
      }

      .cls-23 {
        font-size: 3.49px;
      }

      .cls-23, .cls-24 {
        font-family: MarkerFelt-Wide, 'Marker Felt';
        stroke: #0e0f0e;
      }

      .cls-68 {
        letter-spacing: .6em;
      }

      .cls-69 {
        letter-spacing: .62em;
      }

      .cls-70 {
        letter-spacing: .62em;
      }

      .cls-71 {
        letter-spacing: .62em;
      }

      .cls-72 {
        letter-spacing: .31em;
      }

      .cls-73 {
        letter-spacing: .31em;
      }

      .cls-63, .cls-5 {
        fill: #d1ebdd;
        font-family: MinionVariableConcept-Roman, 'Minion Variable Concept';
        font-variation-settings: 'wght' 400, 'opsz' 11;
      }

      .cls-74 {
        letter-spacing: .62em;
      }

      .cls-56 {
        stroke: #c5b4a3;
      }

      .cls-56, .cls-57, .cls-59 {
        fill: none;
      }

      .cls-57, .cls-59 {
        stroke: #f9f9f9;
      }

      .cls-75 {
        letter-spacing: .63em;
      }

      .cls-76 {
        letter-spacing: .7em;
      }

      .cls-77 {
        letter-spacing: .38em;
      }

      .cls-78 {
        letter-spacing: .37em;
      }

      .cls-79 {
        letter-spacing: .36em;
      }

      .cls-80 {
        letter-spacing: .36em;
      }

      .cls-24 {
        font-size: 3.7px;
      }

      .cls-58 {
        stroke: #fff;
        stroke-width: .75px;
      }

      .cls-81 {
        letter-spacing: .56em;
      }

      .cls-82 {
        letter-spacing: .52em;
      }

      .cls-83 {
        letter-spacing: .56em;
      }

      .cls-84 {
        letter-spacing: .28em;
      }

      .cls-85 {
        letter-spacing: .52em;
      }

      .cls-86 {
        letter-spacing: .52em;
      }

      .cls-87 {
        letter-spacing: .52em;
      }

      .cls-88 {
        letter-spacing: .57em;
      }

      .cls-89 {
        letter-spacing: .59em;
      }

      .cls-59 {
        stroke-width: .5px;
      }

      .cls-90 {
        letter-spacing: .54em;
      }

      .cls-91 {
        letter-spacing: .57em;
      }
    </style>
  </defs>
  <rect class="cls-18" width="640" height="247.42"/>
  <g>
    <path class="cls-55" d="M24.34,194.87v-9.18s135.88,.75,148.37-.12v9.3h-14.79l-.44,11.05h-6.26l-.14-11.34-104.8-.29,.1,11.63h-6.11l-.39-11.34-15.54,.29Z"/>
    <path class="cls-54" d="M57.32,184.9l4.27,.58,6.4-26.45s-.91-1.16-4.27-.87l-6.4,26.74Z"/>
    <path class="cls-53" d="M74.69,185.77h-6.81v-27.35s3.16-.89,6.81,0v27.35Z"/>
    <path class="cls-58" d="M67.88,184.26s3.01-1.37,6.81,0"/>
    <path class="cls-58" d="M67.88,160.63s3.46-2.18,6.81,0"/>
    <text class="cls-23" transform="translate(70.53 165.82) rotate(90) scale(1.05 1)"><tspan class="cls-78"><tspan x="0" y="0">p</tspan></tspan><tspan class="cls-62"><tspan x="2.31" y="0">o</tspan></tspan><tspan class="cls-10"><tspan x="4.58" y="0">e</tspan></tspan><tspan class="cls-51"><tspan x="6.2" y="0">m</tspan></tspan><tspan class="cls-90"><tspan x="9.09" y=".01">s</tspan></tspan></text>
    <path class="cls-22" d="M70.56,162.26l.2,.11s.02,.03,0-.01c0,.01-.01-.11-.01-.1,0-.08-.02-.17,.01-.24,.04-.09,.17-.13,.27-.14,.15-.02,.29,0,.4,.09,.06,.04,.1,.13,.08,.22-.06,.32-.47,.48-.76,.59-.18,.07-.36,.14-.5,.29-.17,.19-.21,.46-.22,.71-.03,1.02,1.15,1.5,2,1.22,.44-.14,.85-.52,.69-1.03-.13-.42-.58-.73-.98-.87-.26-.09-.59-.07-.8,.14-.21,.22-.2,.55-.04,.8s.48,.37,.74,.2c.33-.22,.22-.69-.13-.8-.46-.14-.66,.58-.2,.72h.03c-.06-.02-.11-.06-.17-.09l.02,.02-.1-.17v-.04c.01-.06,.03-.13,.05-.19v.03s.08-.09,.12-.13l.28,.07s-.02-.03-.03-.04c-.01,.03-.07,.14-.07,.16,0,0-.03,.01-.03,0s.11,.03,.11,.03c.13,.05,.26,.14,.36,.23,.03,.03,.08,.08,.1,.11,.05,.08-.02,0,0,0,0,0-.05,.04-.09,.06-.05,.03-.13,.05-.21,.07-.26,.06-.57,0-.77-.16-.09-.08-.14-.15-.16-.27,0-.07,0-.14,0-.21,0-.03,.06-.14,.01-.1,.08-.08,.22-.1,.34-.15,.18-.07,.36-.15,.52-.27,.3-.21,.53-.5,.59-.86,.13-.83-.72-1.29-1.45-1.14-.45,.09-.77,.43-.82,.88-.04,.36,.06,1.01,.56,.97,.2-.02,.38-.16,.38-.38,0-.19-.17-.39-.38-.38h0Z"/>
    <path class="cls-22" d="M70.59,179.34l.2,.11s.02,.03,0-.01c0,.01-.01-.11-.01-.1,0-.08-.02-.17,.01-.24,.04-.09,.17-.13,.27-.14,.15-.02,.29,0,.4,.09,.06,.04,.1,.13,.08,.22-.06,.32-.47,.48-.76,.59-.18,.07-.36,.14-.5,.29-.17,.19-.21,.46-.22,.71-.03,1.02,1.15,1.5,2,1.22,.44-.14,.85-.52,.69-1.03-.13-.42-.58-.73-.98-.87-.26-.09-.59-.07-.8,.14-.21,.22-.2,.55-.04,.8s.48,.37,.74,.2c.33-.22,.22-.69-.13-.8-.46-.14-.66,.58-.2,.72h.03c-.06-.02-.11-.06-.17-.09l.02,.02-.1-.17v-.04c.01-.06,.03-.13,.05-.19v.03s.08-.09,.12-.13l.28,.07s-.02-.03-.03-.04c-.01,.03-.07,.14-.07,.16,0,0-.03,.01-.03,0s.11,.03,.11,.03c.13,.05,.26,.14,.36,.23,.03,.03,.08,.08,.1,.11,.05,.08-.02,0,0,0,0,0-.05,.04-.09,.06-.05,.03-.13,.05-.21,.07-.26,.06-.57,0-.77-.16-.09-.08-.14-.15-.16-.27,0-.07,0-.14,0-.21,0-.03,.06-.14,.01-.1,.08-.08,.22-.1,.34-.15,.18-.07,.36-.15,.52-.27,.3-.21,.53-.5,.59-.86,.13-.83-.72-1.29-1.45-1.14-.45,.09-.77,.43-.82,.88-.04,.36,.06,1.01,.56,.97,.2-.02,.38-.16,.38-.38,0-.19-.17-.39-.38-.38h0Z"/>
    <polygon class="cls-59" points="65.39 166.19 64.75 168.85 61.99 168.25 62.63 165.59 65.39 166.19"/>
    <polygon class="cls-59" points="64.46 170.39 63.82 173.05 61.07 172.45 61.71 169.79 64.46 170.39"/>
    <polygon class="cls-59" points="63.55 174.46 62.91 177.12 60.15 176.52 60.8 173.86 63.55 174.46"/>
    <path class="cls-59" d="M62.76,161.82s2.65-1.48,4.39,.62"/>
    <path class="cls-59" d="M63.13,160.63s3.14-1.09,4.3,.69"/>
    <path class="cls-59" d="M57.73,183.18s2.55-1.04,4.12,.78"/>
    <path class="cls-59" d="M58.07,181.77s2.58-1.05,4.27,.6"/>
    <path class="cls-33" d="M74.69,154.38s5.48-1.45,9.14,.29v31.15h-8.72l-.42-31.44Z"/>
    <path class="cls-32" d="M83.68,185.63v-33.22s4.7-1.84,7.99,0l.46,33.22h-8.45Z"/>
    <path class="cls-29" d="M91.29,155.12s3.78-1.77,9.2,0v30.51h-9.2v-30.51Z"/>
    <text class="cls-3" transform="translate(77.75 163.73) rotate(90) scale(1.05 .96)"><tspan class="cls-44"><tspan x="0" y="0">F</tspan></tspan><tspan class="cls-87"><tspan x="1.73" y="0">a</tspan></tspan><tspan class="cls-49"><tspan x="3.31" y="0">n</tspan></tspan><tspan class="cls-50"><tspan x="5.09" y="0">t</tspan></tspan><tspan class="cls-87"><tspan x="6.72" y=".01">a</tspan></tspan><tspan class="cls-88"><tspan x="8.5" y=".01">s</tspan></tspan><tspan class="cls-69"><tspan x="10.13" y=".02">y</tspan></tspan></text>
    <path class="cls-15" d="M74.47,154.7c.61,.92,1.73,.78,2.66,.54,.5-.13,1.15-.32,1.62,0s.48,1.07,.55,1.57c.15,1,.44,1.88,1.35,2.42,.82,.48,1.86,.57,2.61,1.19,.37,.3,.9-.23,.53-.53-.73-.59-1.62-.76-2.45-1.14-.47-.22-.87-.52-1.07-1.02s-.23-1.01-.31-1.52c-.17-1.01-.64-1.82-1.75-1.88-.54-.03-1.06,.14-1.58,.27-.48,.11-1.19,.22-1.51-.27-.27-.4-.91-.03-.65,.38h0Z"/>
    <path class="cls-15" d="M83.47,175.44c-1.25-.09-2.64,.52-3.13,1.73-.25,.61-.21,1.26-.18,1.9,.03,.68,.03,1.46-.67,1.81-1,.52-2.26,.14-3.29,.63-1.43,.67-1.17,2.65-1.24,3.96-.02,.48,.73,.48,.75,0,.04-.8-.02-1.69,.18-2.47,.16-.64,.64-.88,1.24-.99,.97-.17,2.07,0,2.92-.59,1.05-.72,.82-1.97,.83-3.07,.01-1.44,1.21-2.26,2.59-2.16,.48,.03,.48-.72,0-.75h0Z"/>
    <text class="cls-63" transform="translate(85.8 161.98) rotate(90) scale(1.05 .96)"><tspan class="cls-84"><tspan x="0" y="0">F</tspan></tspan><tspan class="cls-66"><tspan x="2.35" y="0">i</tspan></tspan><tspan class="cls-60"><tspan x="3.63" y="0">c</tspan></tspan><tspan class="cls-82"><tspan x="5.6" y="0">t</tspan></tspan><tspan class="cls-66"><tspan x="7.34" y="0">i</tspan></tspan><tspan class="cls-73"><tspan x="8.4" y=".01">o</tspan></tspan><tspan class="cls-80"><tspan x="9.98" y=".01">n</tspan></tspan></text>
    <polygon class="cls-20" points="88.47 157.98 87.4 157.32 86.23 157.79 86.55 156.62 85.72 155.7 86.99 155.63 87.65 154.59 88.11 155.72 89.35 156 88.37 156.77 88.47 157.98"/>
    <polygon class="cls-20" points="88.57 182.89 87.5 182.24 86.32 182.7 86.65 181.53 85.82 180.61 87.09 180.54 87.75 179.51 88.21 180.64 89.45 180.92 88.46 181.68 88.57 182.89"/>
    <text class="cls-4" transform="translate(94.69 164.29) rotate(90) scale(1.05 .96)"><tspan class="cls-8"><tspan x="0" y="0">R</tspan></tspan><tspan class="cls-86"><tspan x="1.9" y=".01">o</tspan></tspan><tspan class="cls-9"><tspan x="3.33" y=".02">m</tspan></tspan><tspan class="cls-87"><tspan x="5.23" y=".03">a</tspan></tspan><tspan class="cls-49"><tspan x="6.81" y=".05">n</tspan></tspan><tspan class="cls-46"><tspan x="8.5" y=".06">c</tspan></tspan><tspan class="cls-67"><tspan x="10.32" y=".07">e</tspan></tspan></text>
    <path class="cls-6" d="M97.33,159.35c.04-.05,.07-.1,.11-.15l-.23,.3c.07-.09,.15-.18,.25-.26l-.3,.23c.06-.04,.12-.08,.19-.11l-.36,.15c.07-.03,.15-.05,.22-.06l-.4,.05c.07,0,.14,0,.2,0l-.4-.05s.1,.02,.14,.04l-.36-.15s.07,.03,.1,.06l-.3-.23s.05,.04,.07,.07l-.23-.3s.02,.04,.03,.06l-.15-.36s.02,.05,.02,.08l-.05-.4s0,.07,0,.11l.05-.4c0,.06-.02,.11-.05,.16l.15-.36c-.04,.09-.09,.17-.14,.24l.23-.3c-.25,.33-.56,.62-.89,.87l.3-.23c-.08,.06-.15,.11-.23,.17-.17,.09-.32,.22-.42,.39-.13,.14-.22,.31-.27,.51-.06,.2-.07,.4-.03,.6,0,.2,.07,.39,.18,.56,.21,.32,.51,.6,.9,.69s.83,.08,1.16-.15c.35-.25,.7-.51,1.01-.81,.11-.11,.21-.22,.31-.33,.12-.14,.23-.29,.34-.44,.04-.06,.08-.11,.11-.17,.08-.16,.16-.33,.21-.5,0-.03,.01-.06,.02-.09,.03-.15,.06-.31,.06-.47,0-.01,0-.03,0-.04,0-.09-.03-.32-.06-.41,0-.03-.01-.05-.02-.07-.05-.13-.1-.29-.19-.42-.05-.08-.18-.24-.24-.31-.01-.02-.03-.03-.04-.04-.12-.12-.27-.23-.42-.31-.08-.04-.29-.14-.43-.17-.15-.04-.32-.05-.47-.07-.06,0-.12,0-.18,0-.16,.01-.32,.04-.48,.06-.03,0-.07,.01-.1,.02-.15,.05-.29,.11-.43,.18-.04,.02-.07,.03-.11,.05-.08,.05-.16,.11-.24,.17s-.16,.12-.24,.19c-.05,.05-.1,.11-.15,.16-.12,.16-.25,.31-.36,.48-.11,.17-.17,.36-.18,.56-.04,.2-.04,.4,.03,.6,.05,.2,.14,.37,.27,.51,.11,.16,.25,.29,.42,.39,.35,.18,.77,.28,1.16,.15l.36-.15c.23-.13,.4-.31,.54-.54h0Z"/>
    <path class="cls-6" d="M96.05,157.16h-.03c.13,.02,.27,.03,.4,.05-.04,0-.08-.02-.12-.03l.36,.15c-.05-.02-.1-.05-.14-.08l.3,.23c-.1-.08-.18-.18-.27-.26-.29-.26-.57-.44-.95-.55-.49-.14-1.02-.07-1.46,.18-.53,.3-.84,.89-.85,1.49,0,.5,.22,.95,.56,1.31,.11,.12,.24,.21,.36,.31s.24,.21,.36,.32,.24,.22,.34,.34l-.23-.3s.04,.05,.05,.09l-.15-.36s.01,.03,.01,.05l-.05-.4s0,.03,0,.05l.05-.4s0,.02,0,.03l.15-.36h0c.08-.09,.16-.19,.23-.29,0,0-.01,.02-.02,.02l.3-.23h-.01c.12-.04,.24-.09,.36-.14-.01,0-.02,0-.04,.01l1.46,.39c-.27-.3-.54-.61-.78-.93l.23,.3c-.09-.11-.17-.23-.25-.34-.08-.11-.17-.22-.23-.34l.15,.36v-.02c.01,.13,.03,.27,.05,.4v-.02c-.02,.13-.04,.27-.05,.4,0-.01,0-.02,0-.03l-.15,.36s0-.02,.02-.03l-.23,.3h.01c-.1,.07-.2,.15-.3,.22h.01c-.25,.06-.5,.13-.76,.2h.01c-.13-.02-.27-.04-.4-.05h.01c-.22-.12-.44-.25-.66-.38h.01c.1-.77,.2-1.56,.3-2.35-.14,.08-.27,.18-.38,.29-.05,.06-.1,.12-.15,.18s-.1,.12-.14,.19c-.08,.13-.14,.28-.18,.44-.03,.12-.05,.3-.06,.42,0,.02,0,.04,0,.06,0,.12,.03,.3,.06,.42,0,.02,0,.03,.01,.05,.03,.12,.11,.27,.16,.39,0,.02,.02,.04,.03,.06,.1,.18,.24,.35,.39,.49,.31,.3,.65,.57,.97,.86,.14,.15,.3,.25,.48,.31,.18,.09,.37,.14,.58,.13,.21,0,.4-.04,.58-.13,.19-.06,.35-.16,.48-.31,.26-.29,.46-.66,.44-1.06s-.14-.8-.44-1.06c-.19-.17-.38-.33-.56-.5-.17-.15-.36-.29-.51-.47l.23,.3s-.06-.09-.08-.14l.15,.36s-.02-.05-.02-.08l.05,.4s0-.05,0-.08l-.05,.4s.01-.05,.02-.08l-.15,.36s.02-.04,.03-.05l-.23,.3s.03-.03,.05-.05l-.3,.23s.04-.03,.06-.04c.82-.45,1-1.71,.3-2.36-.3-.28-.67-.45-1.09-.45s-.8,.17-1.09,.46c-.02,.02-.19,.22-.25,.33-.06,.11-.12,.27-.16,.38-.12,.38-.05,.86,.15,1.2,.12,.19,.26,.37,.39,.55,.35,.47,.72,.92,1.11,1.35,.36,.39,.96,.52,1.46,.39,.07-.02,.15-.06,.22-.09,.23-.1,.28-.11,.5-.32,.18-.17,.25-.31,.34-.52,.03-.06,.07-.14,.08-.21,.02-.09,.05-.33,.06-.41,0-.07-.02-.19-.03-.23-.01-.08-.01-.16-.04-.23-.11-.4-.38-.71-.66-1-.14-.14-.28-.27-.43-.4s-.31-.24-.43-.38l.23,.3s-.05-.07-.06-.11l.15,.36s-.01-.04-.02-.06l.05,.4s0-.05,0-.08l-.05,.4s.01-.04,.02-.06l-.15,.36s.01-.02,.02-.04l-.23,.3s.03-.03,.05-.05l-.3,.23s.04-.03,.06-.04l-.36,.15s.06-.02,.09-.02l-.4,.05s.06,0,.1,0l-.4-.05c.05,0,.1,.02,.15,.04l-.36-.15c.06,.03,.12,.06,.17,.11l-.3-.23c.1,.09,.19,.19,.29,.28,.14,.11,.28,.25,.44,.32,.14,.07,.29,.14,.44,.18s.33,.05,.49,.07c.21,0,.4-.04,.58-.13,.19-.06,.35-.16,.48-.31,.15-.14,.25-.3,.31-.48,.09-.18,.14-.37,.13-.58-.02-.39-.14-.79-.44-1.06l-.3-.23c-.23-.14-.49-.2-.76-.2h0Z"/>
    <path class="cls-6" d="M96.44,160.72c1.93,0,1.93-3,0-3s-1.93,3,0,3h0Z"/>
    <path class="cls-52" d="M107.15,185.68h-6.81v-27.35s3.16-.89,6.81,0v27.35Z"/>
    <text class="cls-23" transform="translate(102.99 165.73) rotate(90) scale(1.05 1)"><tspan class="cls-78"><tspan x="0" y="0">p</tspan></tspan><tspan class="cls-62"><tspan x="2.31" y="0">o</tspan></tspan><tspan class="cls-11"><tspan x="4.58" y="0">e</tspan></tspan><tspan class="cls-61"><tspan x="6.2" y="0">m</tspan></tspan><tspan class="cls-90"><tspan x="9.09" y=".01">s</tspan></tspan></text>
    <path class="cls-22" d="M103.02,162.17l.2,.11s.02,.03,0-.01c0,.01-.01-.11-.01-.1,0-.08-.02-.17,.01-.24,.04-.09,.17-.13,.27-.14,.15-.02,.29,0,.4,.09,.06,.04,.1,.13,.08,.22-.06,.32-.47,.48-.76,.59-.18,.07-.36,.14-.5,.29-.17,.19-.21,.46-.22,.71-.03,1.02,1.15,1.5,2,1.22,.44-.14,.85-.52,.69-1.03-.13-.42-.58-.73-.98-.87-.26-.09-.59-.07-.8,.14-.21,.22-.2,.55-.04,.8s.48,.37,.74,.2c.33-.22,.22-.69-.13-.8-.46-.14-.66,.58-.2,.72h.03c-.06-.02-.11-.06-.17-.09l.02,.02-.1-.17v-.04c.01-.06,.03-.13,.05-.19v.03s.08-.09,.12-.13l.28,.07s-.02-.03-.03-.04c-.01,.03-.07,.14-.07,.16,0,0-.03,.01-.03,0s.11,.03,.11,.03c.13,.05,.26,.14,.36,.23,.03,.03,.08,.08,.1,.11,.05,.08-.02,0,0,0,0,0-.05,.04-.09,.06-.05,.03-.13,.05-.21,.07-.26,.06-.57,0-.77-.16-.09-.08-.14-.15-.16-.27,0-.07,0-.14,0-.21,0-.03,.06-.14,.01-.1,.08-.08,.22-.1,.34-.15,.18-.07,.36-.15,.52-.27,.3-.21,.53-.5,.59-.86,.13-.83-.72-1.29-1.45-1.14-.45,.09-.77,.43-.82,.88-.04,.36,.06,1.01,.56,.97,.2-.02,.38-.16,.38-.38,0-.19-.17-.39-.38-.38h0Z"/>
    <path class="cls-22" d="M103.05,179.25l.2,.11s.02,.03,0-.01c0,.01-.01-.11-.01-.1,0-.08-.02-.17,.01-.24,.04-.09,.17-.13,.27-.14,.15-.02,.29,0,.4,.09,.06,.04,.1,.13,.08,.22-.06,.32-.47,.48-.76,.59-.18,.07-.36,.14-.5,.29-.17,.19-.21,.46-.22,.71-.03,1.02,1.15,1.5,2,1.22,.44-.14,.85-.52,.69-1.03-.13-.42-.58-.73-.98-.87-.26-.09-.59-.07-.8,.14-.21,.22-.2,.55-.04,.8s.48,.37,.74,.2c.33-.22,.22-.69-.13-.8-.46-.14-.66,.58-.2,.72h.03c-.06-.02-.11-.06-.17-.09l.02,.02-.1-.17v-.04c.01-.06,.03-.13,.05-.19v.03s.08-.09,.12-.13l.28,.07s-.02-.03-.03-.04c-.01,.03-.07,.14-.07,.16,0,0-.03,.01-.03,0s.11,.03,.11,.03c.13,.05,.26,.14,.36,.23,.03,.03,.08,.08,.1,.11,.05,.08-.02,0,0,0,0,0-.05,.04-.09,.06-.05,.03-.13,.05-.21,.07-.26,.06-.57,0-.77-.16-.09-.08-.14-.15-.16-.27,0-.07,0-.14,0-.21,0-.03,.06-.14,.01-.1,.08-.08,.22-.1,.34-.15,.18-.07,.36-.15,.52-.27,.3-.21,.53-.5,.59-.86,.13-.83-.72-1.29-1.45-1.14-.45,.09-.77,.43-.82,.88-.04,.36,.06,1.01,.56,.97,.2-.02,.38-.16,.38-.38,0-.19-.17-.39-.38-.38h0Z"/>
    <path class="cls-28" d="M106.35,154.29s5.48-1.45,9.14,.29v31.15h-8.72l-.42-31.44Z"/>
    <path class="cls-31" d="M124.69,185.76v-33.22s4.7-1.84,7.99,0l.46,33.22h-8.45Z"/>
    <path class="cls-30" d="M115.46,155.47s3.78-1.77,9.2,0v30.51h-9.2v-30.51Z"/>
    <path class="cls-15" d="M106.13,154.61c.61,.92,1.73,.78,2.66,.54,.5-.13,1.15-.32,1.62,0s.48,1.07,.55,1.57c.15,1,.44,1.88,1.35,2.42,.82,.48,1.86,.57,2.61,1.19,.37,.3,.9-.23,.53-.53-.73-.59-1.62-.76-2.45-1.14-.47-.22-.87-.52-1.07-1.02s-.23-1.01-.31-1.52c-.17-1.01-.64-1.82-1.75-1.88-.54-.03-1.06,.14-1.58,.27-.48,.11-1.19,.22-1.51-.27-.27-.4-.91-.03-.65,.38h0Z"/>
    <path class="cls-15" d="M115.13,175.35c-1.25-.09-2.64,.52-3.13,1.73-.25,.61-.21,1.26-.18,1.9,.03,.68,.03,1.46-.67,1.81-1,.52-2.26,.14-3.29,.63-1.43,.67-1.17,2.65-1.24,3.96-.02,.48,.73,.48,.75,0,.04-.8-.02-1.69,.18-2.47,.16-.64,.64-.88,1.24-.99,.97-.17,2.07,0,2.92-.59,1.05-.72,.82-1.97,.83-3.07,.01-1.44,1.21-2.26,2.59-2.16,.48,.03,.48-.72,0-.75h0Z"/>
    <text class="cls-63" transform="translate(126.82 162.11) rotate(90) scale(1.05 .96)"><tspan class="cls-84"><tspan x="0" y="0">F</tspan></tspan><tspan class="cls-66"><tspan x="2.35" y="0">i</tspan></tspan><tspan class="cls-60"><tspan x="3.63" y="0">c</tspan></tspan><tspan class="cls-82"><tspan x="5.6" y="0">t</tspan></tspan><tspan class="cls-66"><tspan x="7.34" y="0">i</tspan></tspan><tspan class="cls-72"><tspan x="8.4" y=".01">o</tspan></tspan><tspan class="cls-79"><tspan x="9.98" y=".01">n</tspan></tspan></text>
    <text class="cls-4" transform="translate(118.86 164.65) rotate(90) scale(1.05 .96)"><tspan class="cls-8"><tspan x="0" y="0">R</tspan></tspan><tspan class="cls-86"><tspan x="1.9" y=".01">o</tspan></tspan><tspan class="cls-9"><tspan x="3.33" y=".02">m</tspan></tspan><tspan class="cls-87"><tspan x="5.23" y=".03">a</tspan></tspan><tspan class="cls-49"><tspan x="6.81" y=".05">n</tspan></tspan><tspan class="cls-46"><tspan x="8.5" y=".06">c</tspan></tspan><tspan class="cls-67"><tspan x="10.32" y=".07">e</tspan></tspan></text>
    <text/>
  </g>
  <g>
    <g>
      <path class="cls-55" d="M476.44,107.6v-9.73s133.36,.8,145.62-.13v9.86h-14.51l-.44,11.71h-6.14l-.14-12.01-102.86-.31,.1,12.32h-6l-.38-12.01-15.25,.31Z"/>
      <path class="cls-54" d="M488.61,97.26l4.19,.62,6.28-28.03s-.9-1.23-4.19-.92l-6.28,28.34Z"/>
      <path class="cls-53" d="M505.66,98.18h-6.69v-28.98s3.1-.95,6.69,0v28.98Z"/>
      <path class="cls-58" d="M498.97,96.58s2.95-1.45,6.69,0"/>
      <path class="cls-58" d="M498.97,71.54s3.4-2.31,6.69,0"/>
      <text class="cls-24" transform="translate(501.46 77.11) rotate(90) scale(.97 1)"><tspan class="cls-12"><tspan x="0" y="0">p</tspan></tspan><tspan class="cls-48"><tspan x="2.63" y="0">o</tspan></tspan><tspan class="cls-85"><tspan x="5.23" y="0">e</tspan></tspan><tspan class="cls-41"><tspan x="7.14" y="0">m</tspan></tspan><tspan class="cls-74"><tspan x="10.38" y=".01">s</tspan></tspan></text>
      <path class="cls-22" d="M501.6,73.29h.03c.06,.04,.11,.07,.17,.1,.03,.02,0,.06,0-.01,0-.03,0-.08-.01-.11,0-.07-.01-.14,0-.21,.03-.14,.14-.2,.28-.22,.23-.03,.51,.09,.47,.36-.05,.31-.42,.51-.7,.62-.19,.08-.39,.15-.53,.31-.17,.2-.21,.47-.22,.73-.03,1.02,1.08,1.59,1.97,1.28,.45-.15,.83-.55,.69-1.06-.12-.43-.59-.78-.99-.91-.26-.09-.56-.05-.75,.15-.23,.23-.21,.58-.04,.84,.18,.27,.56,.39,.81,.13s.1-.64-.21-.75c-.19-.06-.41,.07-.46,.26-.06,.2,.07,.4,.26,.46h.03c-.06-.02-.11-.06-.17-.09l.02,.02-.1-.17v-.04c.01-.06,.03-.13,.05-.19l.02-.02,.17-.1,.21,.05s-.02-.02-.03,.05c0,0-.04,.14-.08,.09,0,0,.1,.03,.12,.04,.14,.06,.28,.17,.38,.29,.02,.03,.08,.09,.07,.13,.01-.04-.07,.03-.04,.02-.12,.06-.21,.11-.35,.13-.24,.03-.55-.05-.71-.25-.09-.12-.1-.25-.1-.4s0-.2,.13-.26c.32-.15,.63-.26,.89-.5s.44-.6,.43-.96c-.02-.76-.84-1.17-1.51-.97-.43,.13-.7,.47-.74,.92-.03,.37,.05,1.01,.56,.98,.2-.01,.38-.16,.38-.38,0-.19-.17-.39-.38-.38h0Z"/>
      <path class="cls-22" d="M501.64,91.39h.03c.06,.04,.11,.07,.17,.1,.03,.02,0,.06,0-.01,0-.03,0-.08-.01-.11,0-.07-.01-.14,0-.21,.03-.14,.14-.2,.28-.22,.23-.03,.51,.09,.47,.36-.05,.31-.42,.51-.7,.62-.19,.08-.39,.15-.53,.31-.17,.2-.21,.47-.22,.73-.03,1.02,1.08,1.59,1.97,1.28,.45-.15,.83-.55,.69-1.06-.12-.43-.59-.78-.99-.91-.26-.09-.56-.05-.75,.15-.23,.23-.21,.58-.04,.84,.18,.27,.56,.39,.81,.13s.1-.64-.21-.75c-.19-.06-.41,.07-.46,.26-.06,.2,.07,.4,.26,.46h.03c-.06-.02-.11-.06-.17-.09l.02,.02-.1-.17v-.04c.01-.06,.03-.13,.05-.19l.02-.02,.17-.1,.21,.05s-.02-.02-.03,.05c0,0-.04,.14-.08,.09,0,0,.1,.03,.12,.04,.14,.06,.28,.17,.38,.29,.02,.03,.08,.09,.07,.13,.01-.04-.07,.03-.04,.02-.12,.06-.21,.11-.35,.13-.24,.03-.55-.05-.71-.25-.09-.12-.1-.25-.1-.4s0-.2,.13-.26c.32-.15,.63-.26,.89-.5s.44-.6,.43-.96c-.02-.76-.84-1.17-1.51-.97-.43,.13-.7,.47-.74,.92-.03,.37,.05,1.01,.56,.98,.2-.01,.38-.16,.38-.38,0-.19-.17-.39-.38-.38h0Z"/>
      <polygon class="cls-57" points="496.53 77.43 495.9 80.25 493.2 79.61 493.83 76.79 496.53 77.43"/>
      <polygon class="cls-57" points="495.62 81.89 494.99 84.7 492.29 84.06 492.92 81.25 495.62 81.89"/>
      <polygon class="cls-57" points="494.72 86.2 494.09 89.02 491.39 88.38 492.02 85.56 494.72 86.2"/>
      <path class="cls-59" d="M493.95,72.8s2.6-1.57,4.31,.66"/>
      <path class="cls-59" d="M494.34,71.36s3.17-.9,4.15,1.08"/>
      <path class="cls-59" d="M489.02,95.44s2.5-1.1,4.04,.82"/>
      <path class="cls-59" d="M489.35,93.95s2.53-1.11,4.19,.64"/>
      <path class="cls-33" d="M505.66,64.91s5.38-1.54,8.97,.31v33.01h-8.56l-.41-33.32Z"/>
      <path class="cls-32" d="M514.48,98.03V62.83s4.61-1.95,7.84,0l.46,35.2h-8.29Z"/>
      <path class="cls-29" d="M521.95,65.7s3.71-1.88,9.03,0v32.33h-9.03v-32.33Z"/>
      <text class="cls-1" transform="translate(508.5 74.9) rotate(90) scale(.97 .96)"><tspan class="cls-81"><tspan x="0" y="0">F</tspan></tspan><tspan class="cls-65"><tspan x="1.98" y="0">a</tspan></tspan><tspan class="cls-83"><tspan x="3.79" y="0">n</tspan></tspan><tspan class="cls-68"><tspan x="5.82" y="0">t</tspan></tspan><tspan class="cls-65"><tspan x="7.69" y=".01">a</tspan></tspan><tspan class="cls-75"><tspan x="9.71" y=".01">s</tspan></tspan><tspan class="cls-42"><tspan x="11.58" y=".02">y</tspan></tspan></text>
      <path class="cls-15" d="M505.44,65.25c.58,.95,1.69,.82,2.62,.56,.5-.14,1.21-.36,1.65,.05,.41,.39,.41,1.2,.49,1.72,.14,1.01,.44,1.91,1.35,2.47,.8,.5,1.81,.61,2.53,1.24,.36,.32,.89-.21,.53-.53-.71-.63-1.62-.8-2.44-1.22-1.04-.54-1.15-1.51-1.3-2.57s-.51-1.99-1.68-2.08c-.56-.05-1.08,.14-1.61,.28-.5,.13-1.16,.21-1.48-.3-.25-.41-.9-.03-.65,.38h0Z"/>
      <path class="cls-15" d="M514.27,87.25c-1.27-.09-2.6,.59-3.08,1.81-.25,.64-.2,1.34-.18,2.02s.05,1.52-.62,1.93c-.98,.6-2.29,.16-3.32,.71-.53,.29-.86,.81-.97,1.4-.18,.89-.14,1.84-.18,2.74-.02,.48,.73,.48,.75,0,.04-.83,0-1.72,.15-2.54,.13-.67,.55-1,1.19-1.13,.98-.2,2.09-.02,2.94-.65,1.03-.77,.78-2.09,.79-3.22,0-.69,.18-1.31,.73-1.77,.51-.42,1.15-.59,1.8-.54,.48,.04,.48-.71,0-.75h0Z"/>
      <text class="cls-5" transform="translate(516.42 73.08) rotate(90) scale(.97 .96)"><tspan class="cls-40"><tspan x="0" y="0">F</tspan></tspan><tspan class="cls-70"><tspan x="2.63" y="0">i</tspan></tspan><tspan class="cls-43"><tspan x="4.13" y="0">c</tspan></tspan><tspan class="cls-64"><tspan x="6.35" y="0">t</tspan></tspan><tspan class="cls-71"><tspan x="8.35" y=".01">i</tspan></tspan><tspan class="cls-77"><tspan x="9.61" y=".02">o</tspan></tspan><tspan class="cls-7"><tspan x="11.42" y=".02">n</tspan></tspan></text>
      <polygon class="cls-20" points="519.18 68.73 518.13 68.03 516.98 68.53 517.3 67.29 516.49 66.31 517.73 66.24 518.38 65.14 518.83 66.34 520.05 66.64 519.08 67.45 519.18 68.73"/>
      <polygon class="cls-20" points="519.28 95.13 518.23 94.44 517.08 94.93 517.4 93.69 516.58 92.71 517.83 92.64 518.48 91.54 518.93 92.74 520.14 93.04 519.18 93.85 519.28 95.13"/>
      <text class="cls-2" transform="translate(525.13 75.51) rotate(90) scale(.97 .96)"><tspan class="cls-45"><tspan x="0" y="0">R</tspan></tspan><tspan class="cls-89"><tspan x="2.15" y=".01">o</tspan></tspan><tspan class="cls-47"><tspan x="3.81" y=".02">m</tspan></tspan><tspan class="cls-65"><tspan x="5.96" y=".03">a</tspan></tspan><tspan class="cls-83"><tspan x="7.78" y=".04">n</tspan></tspan><tspan class="cls-91"><tspan x="9.71" y=".06">c</tspan></tspan><tspan class="cls-76"><tspan x="11.78" y=".07">e</tspan></tspan></text>
      <path class="cls-6" d="M527.9,70.14c.05-.07,.1-.15,.15-.21l-.23,.3c.07-.09,.14-.16,.22-.23l-.3,.23c.05-.04,.11-.08,.17-.1l-.36,.15c.07-.03,.14-.05,.21-.06l-.4,.05c.06,0,.12,0,.19,0l-.4-.05c.05,0,.1,.02,.15,.04l-.36-.15s.06,.03,.09,.05l-.3-.23s.05,.05,.07,.07l-.23-.3s.04,.05,.05,.08l-.15-.36s.02,.06,.02,.09l-.05-.4s0,.08,0,.12l.05-.4c0,.06-.03,.12-.05,.17l.15-.36c-.05,.12-.12,.23-.2,.33l.23-.3c-.28,.36-.61,.69-.98,.97l.3-.23s-.04,.03-.05,.04c-.17,.09-.32,.22-.42,.39-.13,.14-.22,.31-.27,.51-.06,.2-.07,.4-.03,.6,0,.2,.07,.39,.18,.56,.21,.32,.51,.6,.9,.69l.4,.05c.27,0,.52-.07,.76-.2,.35-.27,.7-.53,1-.85,.1-.11,.2-.22,.3-.34,.16-.2,.34-.4,.45-.63,.08-.16,.16-.33,.21-.51,0-.03,.01-.06,.02-.09,.03-.15,.06-.32,.06-.47,0-.02,0-.03,0-.05,0-.1-.04-.31-.06-.41,0-.03-.01-.05-.02-.08-.1-.31-.23-.54-.46-.78-.1-.1-.23-.2-.35-.28-.02-.02-.05-.03-.08-.04-.13-.07-.28-.13-.42-.17-.03-.01-.07-.02-.1-.02-.18-.03-.37-.07-.56-.05s-.38,.03-.56,.09c-.38,.12-.72,.32-1.01,.61-.2,.2-.36,.43-.51,.66-.11,.17-.17,.36-.18,.56-.04,.2-.04,.4,.03,.6,.05,.2,.14,.37,.27,.51,.11,.16,.25,.29,.42,.39,.35,.18,.77,.28,1.16,.15l.36-.15c.23-.13,.4-.31,.54-.54h0Z"/>
      <path class="cls-6" d="M526.62,67.95h-.03c.13,.02,.27,.03,.4,.05-.04,0-.08-.02-.12-.03l.36,.15s-.09-.05-.13-.08l.3,.23c-.1-.08-.17-.18-.26-.27-.26-.27-.6-.47-.96-.58-.48-.15-1-.07-1.43,.17-.25,.14-.5,.4-.64,.64-.03,.07-.06,.13-.08,.2-.03,.07-.06,.13-.08,.2-.04,.15-.07,.31-.06,.47,0,.18,.02,.37,.08,.53,.12,.34,.24,.53,.48,.81,.1,.11,.22,.2,.33,.3,.24,.22,.48,.46,.69,.71l-.23-.3s.04,.06,.05,.09l-.15-.36s.02,.05,.02,.08l-.05-.4s0,.02,0,.04l.05-.4s0,.02,0,.03l.15-.36s0,.02-.02,.03l.23-.3h-.01c.1-.07,.2-.14,.3-.22,0,0-.02,.01-.03,.02l.36-.15h-.02c.49,.13,.97,.26,1.46,.39-.15-.18-.3-.37-.45-.55l.23,.3c-.14-.19-.28-.38-.42-.57-.06-.09-.13-.18-.19-.28s-.14-.19-.19-.3l.15,.36v-.02c.01,.13,.03,.27,.05,.4v-.02c-.02,.13-.04,.27-.05,.4,0-.01,0-.03,.01-.04l-.15,.36v-.02c-.07,.1-.15,.2-.23,.3h.01c-.1,.07-.2,.14-.3,.22h.01c-.12,.04-.24,.09-.36,.14h.01c-.27,0-.53,0-.8,0h.01c-.22-.12-.44-.25-.66-.38h.01c.1-.77,.2-1.56,.3-2.34-.07,.04-.13,.1-.19,.14s-.13,.09-.19,.15c-.08,.08-.18,.23-.25,.32-.01,.02-.02,.03-.03,.05-.16,.28-.24,.59-.24,.91,0,.02,0,.04,0,.06,.01,.13,.02,.3,.06,.43,.04,.15,.11,.3,.18,.44,.1,.19,.24,.35,.38,.51,.3,.32,.64,.61,.96,.91,.28,.27,.67,.44,1.06,.44,.21,0,.4-.04,.58-.13,.19-.06,.35-.16,.48-.31,.26-.29,.46-.66,.44-1.06s-.15-.78-.44-1.06c-.18-.17-.36-.34-.54-.51-.17-.16-.35-.31-.49-.48l.23,.3s-.07-.1-.09-.15l.15,.36s-.02-.06-.03-.09l.05,.4s0-.08,0-.11l-.05,.4s.01-.04,.02-.07l-.15,.36s.03-.05,.05-.08l-.23,.3s.03-.03,.05-.05l-.3,.23s.03-.02,.04-.03c.23-.13,.4-.31,.54-.54,.11-.17,.17-.36,.18-.56,.04-.2,.04-.4-.03-.6-.07-.25-.2-.47-.39-.66-.19-.18-.42-.33-.67-.4-.27-.08-.37-.06-.61-.03-.07,0-.14,.01-.21,.03l-.36,.15c-.08,.05-.26,.19-.33,.26l-.23,.3c-.03,.06-.06,.13-.08,.2-.05,.11-.06,.14-.09,.22l-.05,.4c0,.07,0,.15,.03,.22,0,.07,.02,.15,.03,.22l.15,.36c.11,.2,.25,.4,.39,.59,.34,.49,.71,.96,1.09,1.41,.19,.19,.41,.31,.66,.39,.27,.07,.53,.07,.8,0,.28-.08,.36-.14,.56-.29,.06-.04,.11-.08,.16-.13l.23-.3s.01-.02,.02-.03l.15-.36s0-.02,0-.02c.02-.06,.05-.35,.06-.42,0-.13-.03-.3-.05-.43,0-.01,0-.03,0-.04-.02-.07-.07-.17-.09-.22s-.06-.14-.09-.21c-.07-.13-.18-.25-.27-.37-.06-.08-.13-.15-.2-.23-.14-.15-.28-.29-.42-.43s-.31-.25-.43-.4l.23,.3s-.04-.06-.06-.1l.15,.36s-.02-.06-.02-.09l.05,.4s0-.05,0-.07l-.05,.4s0-.04,.02-.07l-.15,.36s.02-.04,.03-.06l-.23,.3s.03-.03,.05-.05l-.3,.23s.03-.02,.04-.03l-.36,.15s.05-.02,.07-.02l-.4,.05s.07,0,.1,0l-.4-.05s.09,.02,.13,.04l-.36-.15c.06,.03,.11,.06,.17,.1l-.3-.23c.11,.09,.2,.21,.3,.31s.24,.19,.36,.28c.03,.02,.05,.04,.08,.05,.12,.06,.26,.11,.38,.16,.02,0,.04,.02,.06,.02,.16,.04,.33,.05,.49,.07,.21,0,.4-.04,.58-.13,.19-.06,.35-.16,.48-.31,.15-.14,.25-.3,.31-.48,.09-.18,.14-.37,.13-.58-.02-.39-.14-.79-.44-1.06l-.3-.23c-.23-.14-.49-.2-.76-.2h0Z"/>
      <path class="cls-6" d="M527,71.54c1.93,0,1.93-3,0-3s-1.93,3,0,3h0Z"/>
    </g>
    <g>
      <path class="cls-37" d="M558.83,82.67s-1.05,.7,0,1.17h13.12s1.05-.7,0-1.17h-12.9"/>
      <path class="cls-38" d="M559.61,83.84s1.84,1.41,1.84,4.23-.26,2.11,1.05,3.76c0,0,1.31,1.17,5.51,.23,0,0,1.65-.58,1.48-3.93-.17-3.35,1.59-4.29,1.59-4.29h-11.46Z"/>
      <path class="cls-27" d="M561.99,86.9s.22-1.18,1.8-1.18h2.5s1.62,.12,1.67,1.18,0,3.68,0,3.68c0,0-.48,1.61-2.06,1.16l-1.72,.08s-2.41,.13-2.19-1.09c.22-1.22,0-3.83,0-3.83Z"/>
      <path class="cls-38" d="M561.52,90.49s.2,1.1,.98,1.33-.98-1.33-.98-1.33Z"/>
      <path class="cls-34" d="M562.76,92.06s.79,.23-1.84,1.88c0,0-2.62,.7-2.89,1.41h14.77s-1.12-.94-2.43-1.17-2.62-1.88-2.36-2.35l-5.25,.23Z"/>
      <path class="cls-38" d="M562.5,93s4.46-.47,4.99,.23-.52,.94-.52,.94h-3.93l.52,.23s7.08,0,7.35,.94h-12.66s3.48-1.17,4.27-2.35Z"/>
      <path class="cls-35" d="M552.27,96.05h27.68s-.66,2.35-6.96,2.82-13.64,.23-13.64,.23c0,0-5.77-.47-7.08-3.05Z"/>
      <path class="cls-27" d="M553.58,96.99s-.79-.7,1.31-.47l19.1-.05s.85,.75-1.25,1.22c0,0-2.36,.94-2.89,.94h-11.33l-4.94-1.64Z"/>
      <ellipse class="cls-27" cx="570.76" cy="88.89" rx="1.44" ry="1.29"/>
      <ellipse class="cls-39" cx="570.63" cy="89.01" rx=".79" ry=".7"/>
      <path class="cls-16" d="M575.75,95.35h3.34s3.74-4.7,1.91-7.75-4.46-3.99-8.92-2.11c0,0-1.31,.7-1.31,2.35h.79s1.84-4.7,7.08-1.41c0,0,2.63,2.9,.4,5.91-2.23,3.01-3.28,3.01-3.28,3.01Z"/>
      <path class="cls-36" d="M551.74,95.11h28.6s1.57,.23,0,.94h-28.6s-1.05-.7,0-.94Z"/>
      <path class="cls-25" d="M562.64,82.67h5.37l.32-25.57s0,.94-4.46,.23c0,0-2.89-.94-1.84,2.58l.6,22.75Z"/>
      <polygon class="cls-13" points="562.73 81.96 565.25 81.96 565.25 59.47 568.16 59.47 568.16 82.64 562.73 82.64 562.73 81.96"/>
      <path class="cls-21" d="M562.93,57.22c-.35,.21-.72,.44-.92,.78-.24,.4-.2,.88-.15,1.33,.1,.96,.19,1.92,.29,2.88,.02,.23,.05,.48,.19,.68s.44,.33,.68,.22c.25-.11,.3-.41,.31-.67,.05-.79,.1-1.58,.14-2.36,.01-.21,.03-.44,.15-.62s.39-.3,.61-.21c.16,.07,.23,.22,.34,.34,.34,.39,1.06,.46,1.48,.14,.11-.09,.21-.19,.35-.24,.35-.11,.65,.26,.75,.58s.2,.72,.56,.81c.33-.18,.37-.59,.37-.94,0-.76,0-1.52-.01-2.28,0-.05,0-.11-.04-.15-.05-.05-.13-.05-.2-.04-1.65,.13-3.36,.34-4.94-.13"/>
      <path class="cls-14" d="M562.15,64.35c1.42,.44,2.72-.69,2.94-2.05,.08-.5,.09-.99,.11-1.5,0-.11,0-.21,.02-.32,.03-.38-.07,.29,0,0,.02-.09,.04-.17,.06-.26,.05-.15,.03-.11-.06,.11,.03-.06,.05-.11,.08-.16l-2.05,.54c.57,.4,1.32,.6,2.01,.6,.34,0,.7-.05,1.02-.14,.22-.07,.42-.17,.63-.26l-.24,.1s.07-.02,.1-.03c.08-.02,.04-.02-.1,0-.36,.07-.69-.04-1-.33l-.39-.66c.05,.15,.05,.07-.02-.21,.02,.16,.04,.31,.06,.47,.05,.19,.12,.38,.22,.55,.2,.36,.48,.63,.81,.86,.61,.42,1.35,.5,2.06,.35,.77-.16,1.29-1.11,1.05-1.85-.26-.81-1.02-1.22-1.85-1.05,.28-.03,.34-.03,.18-.03-.16,0-.1,0,.18,.03-.05,0-.1-.02-.14-.04,.24,.11,.29,.13,.16,.06-.23-.14,.28,.27,.05,.03-.08-.09-.03-.03,.13,.17-.07-.13-.05-.08,.07,.17,.03,.29,.04,.35,.03,.2-.02-.15-.04-.31-.06-.46-.08-.28-.23-.57-.45-.76-.36-.33-.79-.49-1.28-.49-.42,0-.7,.17-1.08,.31,.46-.17,.07-.05-.04-.01-.16,.03-.11,.03,.15-.01-.06,0-.11,.01-.17,.01-.08,0-.17,0-.25,0-.16-.02-.11,0,.15,.02-.06-.01-.11-.02-.16-.04-.05-.01-.11-.03-.16-.05-.15-.06-.1-.04,.13,.05-.05-.06-.21-.12-.28-.17-.65-.46-1.69-.13-2.05,.54-.43,.79-.5,1.64-.52,2.52,0,.15,0,.31-.02,.46,0,.05,0,.09-.01,.14-.01,.12,0,.06,.02-.17-.04,.05-.05,.19-.06,.26-.06,.25,.11-.23,.03-.08-.06,.1-.03,.05,.1-.13l.19-.14c-.1,.06-.09,.06,.04,0,.13-.05,.15-.06,.04-.02l.25-.03c.27,.05,.33,.06,.18,.02-.75-.23-1.67,.27-1.85,1.05-.19,.81,.24,1.6,1.05,1.85h0Z"/>
      <line class="cls-56" x1="565.45" y1="57.53" x2="565.45" y2="56.27"/>
      <path class="cls-17" d="M565.69,56.35c-.76-.07-1.42-.58-1.71-1.21s-.21-1.37,.1-1.99c.21-.4,.51-.76,.75-1.15,.3-.48,.52-1,.63-1.55,.09,.49-.36,.98-.24,1.47,.05,.22,.21,.4,.35,.59,.47,.61,.78,1.31,.93,2.04,.06,.32,.09,.65,.01,.96s-.29,.61-.61,.76"/>
      <path class="cls-19" d="M565.14,56.18c-.2-.13-.42-.29-.46-.51-.01-.08,0-.16,0-.23,.09-.71,.25-1.41,.47-2.1,.23,.28,.43,.58,.61,.89,.11,.19,.21,.39,.25,.61,.07,.38-.07,.77-.21,1.14-.03,.07-.05,.13-.11,.18-.11,.09-.29,.08-.44,.05"/>
      <path class="cls-26" d="M565.24,55.98c-.09-.06-.12-.18-.1-.28s.07-.2,.11-.29c.09-.21,.14-.44,.14-.67-.03,.29,.23,.56,.2,.86-.01,.13-.08,.26,0,.37-.03,.02-.07,0-.07-.03"/>
    </g>
  </g>
</svg>