<?xml version="1.0" encoding="UTF-8"?>
<svg id="Layer_1" data-name="Layer 1" xmlns="http://www.w3.org/2000/svg" viewBox="0 0 960 313.25">
  <defs>
    <style>
      .cls-1 {
        letter-spacing: .81em;
      }

      .cls-2 {
        letter-spacing: .67em;
      }

      .cls-3 {
        letter-spacing: .67em;
      }

      .cls-4 {
        fill: #f4ce7d;
      }

      .cls-5 {
        fill: #f4cf81;
      }

      .cls-6 {
        fill: #006837;
      }

      .cls-7 {
        fill: #676151;
      }

      .cls-8 {
        fill: #efcd00;
      }

      .cls-9 {
        fill: #f0ede1;
      }

      .cls-10 {
        fill: #f78e00;
      }

      .cls-11 {
        fill: #e3dd00;
      }

      .cls-12 {
        fill: #ffe2a9;
      }

      .cls-13, .cls-14 {
        fill: #fff;
      }

      .cls-15 {
        fill: #ffdc90;
      }

      .cls-16 {
        fill: #f36a02;
      }

      .cls-17, .cls-18 {
        fill: #ff6d80;
      }

      .cls-19 {
        fill: #6c6450;
      }

      .cls-20 {
        fill: #d8b071;
      }

      .cls-21 {
        fill: #17aab8;
      }

      .cls-22 {
        fill: #730643;
      }

      .cls-23 {
        fill: #554a37;
      }

      .cls-24 {
        fill: #645945;
      }

      .cls-25 {
        fill: #776f5a;
      }

      .cls-26 {
        fill: #7a725b;
      }

      .cls-27 {
        fill: #615944;
      }

      .cls-28 {
        fill: #78715d;
      }

      .cls-29 {
        letter-spacing: .69em;
      }

      .cls-30 {
        letter-spacing: .48em;
      }

      .cls-31, .cls-32 {
        stroke: #000;
      }

      .cls-31, .cls-32, .cls-33, .cls-34, .cls-35, .cls-36, .cls-14 {
        stroke-miterlimit: 10;
      }

      .cls-31, .cls-32, .cls-14 {
        stroke-width: .25px;
      }

      .cls-31, .cls-33 {
        fill: #c2adc9;
      }

      .cls-32 {
        fill: #638ed3;
      }

      .cls-37 {
        letter-spacing: .82em;
      }

      .cls-38 {
        letter-spacing: .3em;
      }

      .cls-33 {
        stroke: #fff;
      }

      .cls-34 {
        fill: #754c24;
        stroke: #603813;
      }

      .cls-39 {
        letter-spacing: .55em;
      }

      .cls-18, .cls-40 {
        font-family: BroadwayCopyistTextExt, 'Broadway Copyist Text Ext';
      }

      .cls-18, .cls-40, .cls-41 {
        font-size: 5.64px;
      }

      .cls-40 {
        fill: #f3b785;
      }

      .cls-42 {
        letter-spacing: .61em;
      }

      .cls-43 {
        letter-spacing: .61em;
      }

      .cls-44 {
        letter-spacing: .6em;
      }

      .cls-35 {
        stroke: #c5b4a3;
      }

      .cls-35, .cls-36 {
        fill: none;
      }

      .cls-36 {
        stroke: #f9f9f9;
      }

      .cls-45 {
        letter-spacing: .64em;
      }

      .cls-46 {
        letter-spacing: .45em;
      }

      .cls-47 {
        letter-spacing: .71em;
      }

      .cls-48 {
        letter-spacing: .68em;
      }

      .cls-49 {
        letter-spacing: .7em;
      }

      .cls-50 {
        letter-spacing: .7em;
      }

      .cls-51 {
        letter-spacing: .72em;
      }

      .cls-52 {
        letter-spacing: .74em;
      }

      .cls-53 {
        letter-spacing: .74em;
      }

      .cls-14 {
        font-family: MarkerFelt-Wide, 'Marker Felt';
        font-size: 3.98px;
        stroke: #0e0f0e;
      }

      .cls-54 {
        letter-spacing: .56em;
      }

      .cls-55 {
        letter-spacing: .57em;
      }

      .cls-41 {
        fill: #d1ebdd;
        font-family: MinionVariableConcept-Roman, 'Minion Variable Concept';
        font-variation-settings: 'wght' 400, 'opsz' 11;
      }
    </style>
  </defs>
  <rect class="cls-9" width="960" height="313.25"/>
  <g>
    <g>
      <path class="cls-34" d="M409.81,280.64v-10.48s128.57,.86,140.38-.14v10.62h-13.99l-.42,12.61h-5.92l-.13-12.94-99.16-.33,.09,13.27h-5.78l-.37-12.94-14.7,.33Z"/>
      <path class="cls-32" d="M421.54,269.51l4.04,.66,6.05-30.2s-.86-1.33-4.04-1l-6.05,30.53Z"/>
      <path class="cls-31" d="M437.97,270.5h-6.45v-31.22s2.99-1.02,6.45,0v31.22Z"/>
      <path class="cls-33" d="M431.53,268.78s2.84-1.56,6.45,0"/>
      <path class="cls-33" d="M431.53,241.8s3.28-2.49,6.45,0"/>
      <text class="cls-14" transform="translate(433.73 247.92) rotate(90) scale(.87 1)"><tspan class="cls-54"><tspan x="0" y="0">p</tspan></tspan><tspan class="cls-42"><tspan x="3.16" y="0">o</tspan></tspan><tspan class="cls-45"><tspan x="6.27" y="0">e</tspan></tspan><tspan class="cls-38"><tspan x="8.65" y="0">m</tspan></tspan><tspan class="cls-52"><tspan x="12.46" y=".01">s</tspan></tspan></text>
      <path class="cls-13" d="M434.06,243.72h-.04c.06,.02,.13,.04,.19,.05,.19,.08,.05,.16,.06,.06,0-.05-.01-.12-.02-.17,0-.08-.01-.16,0-.23,.02-.14,.11-.23,.25-.25,.23-.04,.47,.11,.45,.39-.04,.4-.43,.61-.76,.76-.19,.09-.37,.19-.48,.37-.13,.21-.16,.48-.16,.72-.01,1.01,1.04,1.68,1.97,1.3,.45-.18,.76-.61,.62-1.1-.12-.43-.59-.84-1.01-.97-.29-.08-.62,.02-.77,.28-.15,.25-.08,.57,.08,.8,.18,.25,.54,.33,.77,.09,.25-.26,.1-.64-.21-.75-.19-.07-.41,.08-.46,.26-.06,.21,.07,.39,.26,.46h.03c-.06-.02-.11-.05-.17-.09l.02,.02-.1-.17v-.04c.01-.06,.03-.13,.05-.19l.02-.02,.17-.1h.09c.06,.03,.11,.06,.17,.09-.1-.08,.01-.07-.08,.02l-.02,.02c-.07,0-.08,.02-.04,.02,0,0,.12,.06,.08,.04,.13,.07,.25,.17,.34,.29,.05,.07,.11,.15,.05,.23-.07,.09-.22,.13-.32,.14-.27,.04-.57-.08-.7-.32-.07-.13-.07-.28-.06-.43s0-.21,.14-.28c.31-.16,.63-.29,.87-.56s.4-.63,.39-.99c-.03-.75-.81-1.26-1.51-.99-.43,.16-.66,.53-.69,.98-.02,.36,.04,1.04,.55,1,.2-.01,.38-.16,.38-.38,0-.19-.17-.39-.38-.38h0Z"/>
      <path class="cls-13" d="M434.1,263.21h-.04c.06,.02,.13,.04,.19,.05,.19,.08,.05,.16,.06,.06,0-.05-.01-.12-.02-.17,0-.08-.01-.16,0-.23,.02-.14,.11-.23,.25-.25,.23-.04,.47,.11,.45,.39-.04,.4-.43,.61-.76,.76-.19,.09-.37,.19-.48,.37-.13,.21-.16,.48-.16,.72-.01,1.01,1.04,1.68,1.97,1.3,.45-.18,.76-.61,.62-1.1-.12-.43-.59-.84-1.01-.97-.29-.08-.62,.02-.77,.28-.15,.25-.08,.57,.08,.8,.18,.25,.54,.33,.77,.09,.25-.26,.1-.64-.21-.75-.19-.07-.41,.08-.46,.26-.06,.21,.07,.39,.26,.46h.03c-.06-.02-.11-.05-.17-.09l.02,.02-.1-.17v-.04c.01-.06,.03-.13,.05-.19l.02-.02,.17-.1h.09c.06,.03,.11,.06,.17,.09-.1-.08,.01-.07-.08,.02l-.02,.02c-.07,0-.08,.02-.04,.02,0,0,.12,.06,.08,.04,.13,.07,.25,.17,.34,.29,.05,.07,.11,.15,.05,.23-.07,.09-.22,.13-.32,.14-.27,.04-.57-.08-.7-.32-.07-.13-.07-.28-.06-.43s0-.21,.14-.28c.31-.16,.63-.29,.87-.56s.4-.63,.39-.99c-.03-.75-.81-1.26-1.51-.99-.43,.16-.66,.53-.69,.98-.02,.36,.04,1.04,.55,1,.2-.01,.38-.16,.38-.38,0-.19-.17-.39-.38-.38h0Z"/>
      <polygon class="cls-36" points="429.17 248.15 428.56 251.19 425.96 250.5 426.57 247.46 429.17 248.15"/>
      <polygon class="cls-36" points="428.29 252.95 427.69 255.98 425.08 255.29 425.69 252.26 428.29 252.95"/>
      <polygon class="cls-36" points="427.43 257.59 426.82 260.63 424.22 259.94 424.83 256.91 427.43 257.59"/>
      <path class="cls-36" d="M426.69,243.16s2.51-1.69,4.16,.71"/>
      <path class="cls-36" d="M427.03,241.8s2.97-1.25,4.07,.79"/>
      <path class="cls-36" d="M421.93,267.54s2.41-1.19,3.89,.89"/>
      <path class="cls-36" d="M422.25,265.94s2.44-1.19,4.04,.69"/>
      <path class="cls-22" d="M437.97,234.67s5.19-1.66,8.65,.33v35.56h-8.25l-.4-35.89Z"/>
      <path class="cls-21" d="M446.48,270.34v-37.91s4.45-2.1,7.56,0l.44,37.91h-7.99Z"/>
      <path class="cls-20" d="M453.68,235.51s3.58-2.02,8.71,0v34.83h-8.71v-34.83Z"/>
      <text class="cls-40" transform="translate(440.47 245.53) rotate(90) scale(.87 .96)"><tspan class="cls-3"><tspan x="0" y="0">F</tspan></tspan><tspan class="cls-50"><tspan x="2.37" y="0">a</tspan></tspan><tspan class="cls-2"><tspan x="4.57" y="0">n</tspan></tspan><tspan class="cls-47"><tspan x="6.98" y=".01">t</tspan></tspan><tspan class="cls-50"><tspan x="9.24" y=".01">a</tspan></tspan><tspan class="cls-53"><tspan x="11.66" y=".01">s</tspan></tspan><tspan class="cls-1"><tspan x="13.91" y=".02">y</tspan></tspan></text>
      <path class="cls-6" d="M437.42,235.2c.27,.49,.74,.84,1.29,.95,.63,.13,1.22-.05,1.81-.23,.33-.1,.86-.3,1.1,.06,.26,.4,.26,1.03,.32,1.49,.15,1.18,.42,2.26,1.43,2.99,.75,.54,1.76,.67,2.43,1.33s1.75-.38,1.06-1.06-1.63-.9-2.46-1.39c-.92-.54-.92-1.62-1.05-2.57-.16-1.2-.62-2.35-1.98-2.47-.58-.05-1.12,.15-1.67,.31-.35,.1-.78,.21-.99-.16-.46-.85-1.76-.09-1.3,.76h0Z"/>
      <path class="cls-6" d="M446.28,258.39c-1.46-.12-2.85,.82-3.34,2.19-.25,.7-.22,1.45-.2,2.18,.02,.58,.13,1.45-.39,1.86-.4,.32-1.04,.29-1.52,.34-.6,.06-1.22,.14-1.75,.47-1.49,.95-1.19,3.21-1.25,4.73-.04,.97,1.46,.96,1.5,0,.04-.85,.01-1.73,.13-2.57,.07-.54,.27-.9,.81-1.04,1.06-.26,2.2-.06,3.09-.82,1.08-.93,.86-2.39,.86-3.65,0-.61,.09-1.18,.53-1.64,.41-.42,.95-.59,1.53-.54,.96,.08,.96-1.42,0-1.5h0Z"/>
      <text class="cls-41" transform="translate(448.12 243.63) rotate(90) scale(.87 .96)"><tspan class="cls-46"><tspan x="0" y="0">F</tspan></tspan><tspan class="cls-51"><tspan x="3.08" y="0">i</tspan></tspan><tspan class="cls-55"><tspan x="4.93" y="0">c</tspan></tspan><tspan class="cls-29"><tspan x="7.57" y=".01">t</tspan></tspan><tspan class="cls-51"><tspan x="9.95" y=".01">i</tspan></tspan><tspan class="cls-30"><tspan x="11.55" y=".02">o</tspan></tspan><tspan class="cls-39"><tspan x="13.74" y=".02">n</tspan></tspan></text>
      <polygon class="cls-11" points="451.01 238.78 450 238.03 448.89 238.56 449.2 237.22 448.41 236.17 449.61 236.1 450.24 234.91 450.67 236.2 451.84 236.52 450.91 237.4 451.01 238.78"/>
      <polygon class="cls-11" points="451.1 267.22 450.09 266.47 448.98 267 449.29 265.66 448.5 264.61 449.71 264.54 450.33 263.35 450.77 264.64 451.94 264.96 451 265.84 451.1 267.22"/>
      <text class="cls-18" transform="translate(456.5 246.2) rotate(90) scale(.87 .96)"><tspan class="cls-44"><tspan x="0" y="0">R</tspan></tspan><tspan class="cls-49"><tspan x="2.56" y=".01">o</tspan></tspan><tspan class="cls-43"><tspan x="4.59" y=".02">m</tspan></tspan><tspan class="cls-50"><tspan x="7.14" y=".03">a</tspan></tspan><tspan class="cls-2"><tspan x="9.34" y=".04">n</tspan></tspan><tspan class="cls-48"><tspan x="11.66" y=".05">c</tspan></tspan><tspan class="cls-37"><tspan x="14.13" y=".06">e</tspan></tspan></text>
      <path class="cls-17" d="M459.47,240.24c.06-.11,.13-.22,.21-.32l-.23,.3c.06-.07,.12-.14,.2-.2l-.3,.23s.1-.06,.15-.09l-.36,.15c.06-.03,.12-.04,.19-.05l-.4,.05c.06,0,.11,0,.17,0l-.4-.05s.09,.02,.13,.04l-.36-.15s.06,.03,.09,.06l-.3-.23s.04,.04,.06,.06l-.23-.3s.04,.06,.05,.09l-.15-.36s.02,.07,.03,.1l-.05-.4c0,.05,0,.11,0,.16l.05-.4c-.01,.08-.04,.15-.06,.22l.15-.36c-.09,.2-.22,.37-.35,.54l.23-.3c-.25,.32-.52,.6-.83,.86-.15,.14-.25,.3-.31,.48-.09,.18-.14,.37-.13,.58,0,.21,.04,.4,.13,.58,.06,.19,.16,.35,.31,.48,.29,.26,.66,.46,1.06,.44l.4-.05c.25-.07,.47-.2,.66-.39,.25-.21,.48-.44,.69-.68,.18-.21,.34-.43,.5-.65,.08-.12,.16-.24,.22-.37,.16-.36,.28-.67,.28-1.07,0-.15-.03-.32-.06-.46,0-.03-.01-.05-.02-.08-.04-.12-.11-.27-.16-.38,0-.01-.01-.02-.02-.04-.08-.13-.18-.26-.28-.37-.06-.07-.13-.11-.2-.17-.07-.05-.14-.12-.22-.16-.12-.07-.28-.13-.41-.17-.03-.01-.07-.02-.1-.03-.37-.07-.76-.09-1.13,.04-.18,.06-.37,.13-.52,.24s-.32,.23-.45,.37c-.19,.21-.36,.45-.5,.69-.2,.34-.25,.78-.15,1.16,.05,.2,.14,.37,.27,.51,.11,.16,.25,.29,.42,.39,.35,.18,.77,.28,1.16,.15s.7-.35,.9-.69h0Z"/>
      <path class="cls-17" d="M458.19,238.06h-.03c.13,.01,.27,.03,.4,.05-.04,0-.07-.02-.1-.03l.36,.15s-.06-.03-.09-.05l.3,.23c-.11-.09-.19-.2-.28-.31-.25-.29-.58-.46-.93-.6-.45-.17-1.02-.1-1.44,.14-.13,.08-.26,.17-.37,.28-.09,.09-.2,.23-.27,.34-.15,.25-.19,.43-.23,.69s-.03,.48,.04,.75c.05,.17,.13,.36,.23,.51,.16,.23,.33,.42,.53,.61,.25,.25,.48,.51,.69,.79l-.23-.3s.04,.07,.06,.1l-.15-.36s.02,.06,.02,.09l-.05-.4s0,.04,0,.06l.05-.4s0,.02-.01,.04l.15-.36v.02c.07-.1,.15-.2,.23-.3,0,.01-.02,.02-.03,.03l.3-.23h-.02c.12-.04,.24-.09,.36-.14h-.02c.56,.24,1.13,.47,1.69,.7-.44-.58-.84-1.18-1.19-1.81l.15,.36s-.01-.03-.01-.04l.05,.4v-.02c-.02,.13-.04,.27-.05,.4,0-.01,0-.03,0-.04l-.15,.36s.01-.02,.02-.03l-.23,.3h.01c-.22,.12-.44,.25-.66,.38h.01c-.27,0-.53,0-.8,0h.01c-.22-.12-.44-.25-.66-.38h.01c.1-.77,.2-1.56,.3-2.34-.13,.09-.26,.18-.37,.29-.08,.08-.2,.24-.26,.33,0,.01-.02,.03-.03,.04-.06,.11-.12,.27-.16,.38,0,.02-.01,.04-.02,.06-.02,.07-.03,.2-.03,.24-.01,.07-.03,.17-.03,.25,0,.02,0,.03,0,.05,.01,.14,.03,.3,.06,.44,.04,.16,.11,.31,.18,.46,.09,.19,.24,.36,.38,.52,.29,.34,.61,.65,.92,.98,.14,.15,.3,.25,.48,.31,.18,.09,.37,.14,.58,.13,.21,0,.4-.04,.58-.13,.19-.06,.35-.16,.48-.31,.26-.29,.46-.66,.44-1.06s-.16-.76-.44-1.06c-.16-.17-.33-.35-.49-.52s-.33-.33-.47-.51l.23,.3c-.04-.05-.07-.11-.1-.17l.15,.36s-.03-.09-.04-.14l.05,.4s0-.07,0-.1l-.05,.4s.01-.07,.02-.1l-.15,.36s.03-.06,.05-.09l-.23,.3s.03-.04,.06-.05l-.3,.23h.02c.23-.15,.4-.33,.54-.55,.11-.17,.17-.36,.18-.56,.04-.2,.04-.4-.03-.6-.07-.25-.2-.47-.39-.66-.05-.05-.1-.1-.16-.13-.09-.09-.2-.16-.33-.19-.06-.03-.13-.06-.19-.08l-.4-.05c-.4-.02-.8,.18-1.08,.45,0,0-.19,.22-.25,.33s-.13,.27-.16,.39c-.03,.1-.06,.33-.06,.43,0,.12,.03,.31,.06,.43,.05,.22,.19,.44,.31,.63,.06,.11,.13,.22,.2,.32,.26,.42,.54,.83,.84,1.22l.23,.3c.14,.15,.3,.25,.48,.31,.12,.07,.24,.1,.38,.1,.2,.04,.4,.04,.6-.03,.27-.09,.5-.21,.7-.4,.16-.15,.26-.32,.35-.52,.02-.04,.07-.14,.08-.21s.06-.35,.06-.42c0-.02,0-.03,0-.05,0-.12-.03-.3-.06-.42-.04-.15-.11-.29-.17-.43-.02-.03-.03-.06-.05-.09-.12-.18-.26-.35-.4-.51-.13-.15-.26-.3-.4-.45s-.29-.27-.41-.43l.23,.3s-.07-.1-.09-.15l.15,.36s-.02-.06-.02-.1l.05,.4s0-.05,0-.07l-.05,.4s.01-.06,.02-.09l-.15,.36s.02-.04,.04-.06l-.23,.3s.02-.02,.04-.03l-.3,.23s.04-.03,.07-.04l-.36,.15s.03-.01,.05-.01l-.4,.05s.07,0,.1,0l-.4-.05s.07,.02,.1,.03l-.36-.15c.05,.02,.1,.05,.15,.09l-.3-.23c.12,.1,.2,.23,.31,.34,.03,.03,.05,.05,.08,.07,.12,.1,.24,.2,.37,.28s.29,.14,.43,.18c.15,.05,.33,.05,.49,.07,.21,0,.4-.04,.58-.13,.19-.06,.35-.16,.48-.31,.15-.14,.25-.3,.31-.48,.09-.18,.14-.37,.13-.58-.02-.39-.14-.79-.44-1.06l-.3-.23c-.23-.14-.49-.2-.76-.2h0Z"/>
      <path class="cls-17" d="M458.55,241.69c1.93,0,1.93-3,0-3s-1.93,3,0,3h0Z"/>
    </g>
    <g>
      <path class="cls-26" d="M489.23,253.79s-1.01,.75,0,1.26h12.65s1.01-.76,0-1.26h-12.43"/>
      <path class="cls-27" d="M489.99,255.05s1.77,1.52,1.77,4.55-.25,2.28,1.01,4.05c0,0,1.26,1.26,5.31,.25,0,0,1.59-.62,1.43-4.23s1.53-4.62,1.53-4.62h-11.05Z"/>
      <path class="cls-19" d="M492.28,258.34s.22-1.27,1.74-1.27h2.41s1.57,.13,1.61,1.27,0,3.97,0,3.97c0,0-.47,1.73-1.99,1.25l-1.66,.08s-2.33,.14-2.11-1.18,0-4.13,0-4.13Z"/>
      <path class="cls-27" d="M491.82,262.22s.19,1.18,.95,1.44-.95-1.44-.95-1.44Z"/>
      <path class="cls-23" d="M493.02,263.91s.76,.25-1.77,2.02c0,0-2.53,.76-2.78,1.52h14.24s-1.08-1.01-2.35-1.26-2.53-2.02-2.28-2.53l-5.06,.25Z"/>
      <path class="cls-27" d="M492.77,264.92s4.3-.51,4.81,.25-.51,1.01-.51,1.01h-3.79l.5,.25s6.83,0,7.08,1.01h-12.21s3.36-1.26,4.11-2.53Z"/>
      <path class="cls-24" d="M482.91,268.21h26.69s-.64,2.53-6.71,3.04-13.15,.25-13.15,.25c0,0-5.57-.51-6.83-3.29Z"/>
      <path class="cls-19" d="M484.17,269.22s-.76-.76,1.26-.51l18.41-.05s.81,.81-1.21,1.32c0,0-2.28,1.01-2.78,1.01h-10.92l-4.76-1.77Z"/>
      <circle class="cls-19" cx="500.74" cy="260.49" r="1.39"/>
      <circle class="cls-28" cx="500.61" cy="260.62" r=".76"/>
      <path class="cls-7" d="M505.55,267.45h3.22s3.61-5.06,1.84-8.35-4.3-4.3-8.6-2.28c0,0-1.26,.76-1.26,2.53h.76s1.77-5.06,6.83-1.52c0,0,2.54,3.12,.38,6.37-2.15,3.24-3.17,3.24-3.17,3.24Z"/>
      <path class="cls-25" d="M482.4,267.2h27.57s1.52,.25,0,1.01h-27.57s-1.01-.76,0-1.01Z"/>
      <path class="cls-15" d="M492.9,253.79h5.18l.31-27.54s0,1.01-4.3,.25c0,0-2.78-1.01-1.77,2.78l.58,24.51Z"/>
      <polygon class="cls-4" points="493 253.03 495.43 253.03 495.43 228.81 498.23 228.81 498.23 253.76 493 253.76 493 253.03"/>
      <path class="cls-12" d="M493.19,226.38c-.34,.23-.69,.48-.89,.84-.23,.43-.19,.95-.15,1.44,.09,1.03,.19,2.07,.28,3.1,.02,.25,.05,.52,.19,.73s.43,.35,.65,.24c.24-.12,.29-.44,.3-.72,.05-.85,.09-1.7,.14-2.55,.01-.23,.03-.47,.15-.67s.38-.33,.59-.23c.15,.07,.23,.24,.33,.37,.33,.42,1.02,.49,1.43,.15,.11-.09,.2-.21,.33-.26,.34-.12,.63,.28,.72,.63s.2,.77,.54,.87c.32-.2,.36-.64,.35-1.02,0-.82,0-1.63-.01-2.45,0-.06,0-.12-.04-.16-.05-.05-.13-.05-.2-.04-1.59,.14-3.24,.37-4.76-.14"/>
      <path class="cls-5" d="M492.42,233.95c1.31,.45,2.59-.63,2.86-1.87,.18-.83,.09-1.68,.2-2.52l-.05,.4c.02-.13,.04-.26,.08-.38,.01-.06,.04-.11,.05-.16,.04-.17-.16,.35-.03,.08l-2.36,.3c.38,.3,.69,.49,1.14,.67,.33,.13,.7,.18,1.05,.19s.7-.03,1.02-.13c.21-.06,.42-.15,.62-.25,.04-.02,.09-.04,.13-.06-.28,.18-.28,.1-.11,.07l-.4,.05s.08,0,.12,0l-.4-.05-.26-.1-.54-.54-.09-.25-.05-.4c.06,.43,.09,.79,.29,1.18,.13,.26,.32,.5,.55,.68,.66,.54,1.43,.76,2.27,.56,.76-.18,1.29-1.09,1.05-1.85-.26-.8-1.03-1.24-1.85-1.05-.04,.01-.09,.02-.13,.03l.4-.05c-.07,0-.13,0-.2,0l.4,.05s-.09-.01-.13-.02c-.14-.05-.09-.02,.17,.08-.27-.21,.15,.15,.06,.07-.23-.22,.17,.3,.04,.07-.07-.13-.05-.07,.07,.18-.01-.04-.02-.09-.03-.13l.05,.4c-.04-.39-.07-.73-.28-1.07-.32-.51-.88-.8-1.48-.79-.4,0-.72,.14-1.07,.31-.31,.15,.31-.08,.04-.02-.1,.02-.2,.05-.31,.07l.4-.05c-.19,.02-.36,.02-.55,0l.4,.05c-.08-.01-.15-.03-.23-.05-.06-.02-.28-.11-.04,0s0,0-.03-.03c-.1-.05-.31-.22,.04,.06-.39-.31-.75-.48-1.26-.41-.44,.06-.89,.3-1.1,.72-.31,.64-.45,1.27-.49,1.98-.03,.49,0,.98-.07,1.47l.05-.4c-.02,.11-.03,.23-.06,.34-.03,.13-.16,.32,.04-.05-.14,.25,.24-.22,.04-.04,.21-.15,.25-.18,.12-.1,.25-.09,.29-.12,.15-.08l.4-.05s-.1,0-.15,0l.4,.05s-.1-.02-.14-.04c-.74-.26-1.67,.29-1.85,1.05-.19,.83,.25,1.57,1.05,1.85h0Z"/>
      <line class="cls-35" x1="495.61" y1="226.72" x2="495.61" y2="225.36"/>
      <path class="cls-8" d="M495.85,225.45c-.73-.08-1.37-.62-1.65-1.31s-.21-1.48,.1-2.15c.2-.43,.49-.82,.72-1.23,.29-.52,.5-1.08,.61-1.66,.08,.53-.35,1.05-.24,1.58,.05,.24,.2,.43,.34,.63,.45,.66,.76,1.42,.9,2.2,.06,.34,.09,.7,.01,1.03s-.28,.66-.59,.82"/>
      <path class="cls-10" d="M495.31,225.26c-.19-.14-.4-.31-.44-.55-.01-.08,0-.17,0-.25,.09-.76,.24-1.52,.45-2.26,.22,.31,.41,.63,.59,.96,.11,.21,.21,.42,.24,.65,.07,.41-.07,.83-.21,1.22-.02,.07-.05,.15-.11,.2-.11,.1-.28,.08-.42,.05"/>
      <path class="cls-16" d="M495.41,225.05c-.09-.07-.11-.19-.1-.3s.07-.21,.11-.32c.09-.23,.14-.48,.14-.72-.03,.32,.22,.61,.19,.92-.01,.14-.07,.28,0,.4-.03,.02-.07,0-.07-.04"/>
    </g>
  </g>
</svg>